<svg xmlns="http://www.w3.org/2000/svg" width="73.12" height="70.5" viewBox="0 0 73.12 70.5">
  <path id="industry_1_" data-name="industry (1)" d="M34.243,51.546h11.2a1.009,1.009,0,0,0,1.009-1.009V45.868a1.009,1.009,0,0,0-1.009-1.009h-11.2a1.009,1.009,0,0,0-1.009,1.009v4.669A1.009,1.009,0,0,0,34.243,51.546Zm1.009-4.669h9.182v2.652H35.252ZM59.22,74.616H64.38a1.009,1.009,0,0,0,1.009-1.009V67.564a1.009,1.009,0,0,0-1.009-1.009H59.22a1.009,1.009,0,0,0-1.009,1.009v6.044A1.009,1.009,0,0,0,59.22,74.616Zm1.009-6.044h3.142V72.6H60.229ZM20.6,66.844h3.2A1.009,1.009,0,0,0,24.8,65.836v-8.39A1.009,1.009,0,0,0,23.8,56.437H20.6a1.009,1.009,0,0,0-1.009,1.009v8.39A1.009,1.009,0,0,0,20.6,66.844Zm1.009-8.39h1.179v6.373H21.608Zm54,18.8H73V62.913A1.009,1.009,0,0,0,71.994,61.9H69.185L67.82,41.039a1.953,1.953,0,0,0,1.4-1.871V36a1.953,1.953,0,0,0-1.951-1.951H58.259A1.953,1.953,0,0,0,56.308,36v3.165a1.953,1.953,0,0,0,1.4,1.871L56.345,61.9H52.615V39.389a1.008,1.008,0,0,0-1.009-1.009H49.155V34.628a1.009,1.009,0,0,0-1.009-1.009H38.481l.48-1.158,1.472-.29A1.7,1.7,0,0,0,41.8,30.5v-3.71a1.7,1.7,0,0,0-1.37-1.667l-1.472-.29-1.029-2.483.836-1.246a1.7,1.7,0,0,0-.21-2.148l-2.623-2.623a1.7,1.7,0,0,0-2.148-.21l-1.246.836-2.483-1.029-.29-1.472a1.7,1.7,0,0,0-1.667-1.37h-3.71a1.7,1.7,0,0,0-1.667,1.37l-.29,1.472-2.483,1.029L18.7,16.128a1.7,1.7,0,0,0-2.147.21L13.934,18.96a1.7,1.7,0,0,0-.21,2.148l.836,1.246-1.029,2.483-1.472.29a1.7,1.7,0,0,0-1.371,1.667V30.5a1.7,1.7,0,0,0,1.37,1.667l1.472.29,1.029,2.483-.836,1.246a1.7,1.7,0,0,0,.21,2.147l2.623,2.623a1.7,1.7,0,0,0,2.148.21l1.246-.836,2.483,1.029.29,1.472a1.7,1.7,0,0,0,1.667,1.37h2.679v.149L15.922,49.083a1.008,1.008,0,0,0-.615.928V55H8.4a1.009,1.009,0,0,0-1.009,1.009V77.25H5.009A1.009,1.009,0,0,0,4,78.259v3.825a1.009,1.009,0,0,0,1.009,1.009h70.6a1.009,1.009,0,0,0,1.009-1.009V78.259a1.009,1.009,0,0,0-1.009-1.009ZM58.325,36.07H67.2V39.1h-8.88Zm1.4,5.049H65.8L67.163,61.9h-8.8Zm11.258,22.8V77.25H52.615V63.922ZM50.6,77.25h-5.04V66a3.093,3.093,0,0,0-3.09-3.09H37.217A3.093,3.093,0,0,0,34.127,66V77.25h-5.04V40.4H50.6V77.25Zm-7.057,0h-7.4V66a1.074,1.074,0,0,1,1.073-1.073h5.251A1.074,1.074,0,0,1,43.541,66ZM26.246,35.1A6.452,6.452,0,1,1,32.7,28.649,6.46,6.46,0,0,1,26.246,35.1Zm20.892,3.279H32.548V35.637h14.59ZM24.653,42.189l-.344-1.745a1.009,1.009,0,0,0-.6-.737l-3.482-1.442a1.009,1.009,0,0,0-.948.094L17.8,39.35,15.545,37.1l.991-1.478a1.009,1.009,0,0,0,.094-.948L15.188,31.19a1.008,1.008,0,0,0-.737-.6l-1.745-.344V27.056l1.745-.344a1.009,1.009,0,0,0,.737-.6l1.442-3.482a1.009,1.009,0,0,0-.094-.948L15.545,20.2,17.8,17.948l1.478.991a1.009,1.009,0,0,0,.948.094l3.482-1.442a1.008,1.008,0,0,0,.6-.737l.344-1.745h3.186l.344,1.745a1.009,1.009,0,0,0,.6.737l3.482,1.442a1.009,1.009,0,0,0,.948-.094l1.478-.991L36.947,20.2l-.991,1.478a1.009,1.009,0,0,0-.094.948L37.3,26.108a1.008,1.008,0,0,0,.737.6l1.745.344v3.186l-1.745.344a1.009,1.009,0,0,0-.737.6L36.3,33.619H33.1a8.475,8.475,0,1,0-2.567,2.331v2.43H28.079a1.009,1.009,0,0,0-1.009,1.009v2.8H24.653Zm2.418,4.357v30.7H17.324V50.679ZM9.405,57.015h5.9V77.25h-5.9Zm65.2,24.06H6.017V79.267H74.6v1.807Z" transform="translate(-3.75 -12.842)" fill="#231f20" stroke="#f7f7f7" stroke-width="0.5"/>
</svg>
