<svg xmlns="http://www.w3.org/2000/svg" width="63" height="63" viewBox="0 0 63 63">
  <path id="automation" d="M69.217,51.425V46.575H65.538a1.042,1.042,0,0,1-1.032-.9,15.757,15.757,0,0,0-2.232-5.346,1.042,1.042,0,0,1,.135-1.306l2.6-2.6-3.43-3.43-2.6,2.6a1.042,1.042,0,0,1-1.346.109,15.753,15.753,0,0,0-5.377-2.222,1.04,1.04,0,0,1-.828-1.018h0V28.783H46.575v3.679a1.042,1.042,0,0,1-.9,1.032,15.753,15.753,0,0,0-5.346,2.232,1.042,1.042,0,0,1-1.306-.135h0l-2.6-2.6-3.43,3.43,2.6,2.6a1.042,1.042,0,0,1,.109,1.346,15.754,15.754,0,0,0-2.222,5.377,1.04,1.04,0,0,1-1.018.828v0H28.783v4.851h3.679a1.042,1.042,0,0,1,1.032.9,15.753,15.753,0,0,0,2.232,5.346,1.042,1.042,0,0,1-.135,1.306l-2.6,2.6,3.43,3.43,2.6-2.6a1.042,1.042,0,0,1,1.346-.109,15.762,15.762,0,0,0,5.377,2.222,1.04,1.04,0,0,1,.828,1.018h0v3.679h4.851V65.538a1.042,1.042,0,0,1,.9-1.032,15.753,15.753,0,0,0,5.346-2.232,1.042,1.042,0,0,1,1.306.135l2.6,2.6,3.43-3.43-2.6-2.6a1.042,1.042,0,0,1-.109-1.346,15.758,15.758,0,0,0,2.222-5.377,1.04,1.04,0,0,1,1.018-.828v0ZM67.411,26.7A28.922,28.922,0,0,0,20.08,49h0A1.042,1.042,0,0,1,18,49h0A30.993,30.993,0,0,1,68.425,24.845l-1.013-4.754a1.04,1.04,0,1,1,2.035-.431l1.662,7.8a1.04,1.04,0,0,1-1,1.322H63.582a1.042,1.042,0,0,1,0-2.084ZM30.589,71.3A28.919,28.919,0,0,0,77.916,49,1.042,1.042,0,1,1,80,49,31,31,0,0,1,29.575,73.155l1.013,4.754a1.04,1.04,0,0,1-2.035.431l-1.662-7.8a1.04,1.04,0,0,1,1-1.322h6.524a1.042,1.042,0,1,1,0,2.084ZM43.275,49.737a1.042,1.042,0,1,1,1.474-1.474l2.589,2.589,5.915-5.915a1.042,1.042,0,1,1,1.474,1.474l-6.652,6.651a1.042,1.042,0,0,1-1.474,0ZM49,58.17A9.17,9.17,0,1,1,58.17,49,9.17,9.17,0,0,1,49,58.17Zm0,2.084A11.254,11.254,0,1,1,60.254,49,11.254,11.254,0,0,1,49,60.254ZM71.3,45.533v6.935a1.042,1.042,0,0,1-1.042,1.042h-3.9a17.839,17.839,0,0,1-1.9,4.578l2.756,2.756a1.042,1.042,0,0,1,0,1.474l-4.9,4.9a1.042,1.042,0,0,1-1.474,0l-2.756-2.756a17.83,17.83,0,0,1-4.579,1.9v3.9A1.042,1.042,0,0,1,52.467,71.3H45.533a1.042,1.042,0,0,1-1.042-1.042v-3.9a17.839,17.839,0,0,1-4.578-1.9l-2.756,2.756a1.042,1.042,0,0,1-1.473,0l-4.9-4.9a1.042,1.042,0,0,1,0-1.474l2.756-2.756a17.834,17.834,0,0,1-1.9-4.579h-3.9A1.042,1.042,0,0,1,26.7,52.467V45.533a1.042,1.042,0,0,1,1.042-1.042h3.9a17.83,17.83,0,0,1,1.9-4.578l-2.756-2.756a1.042,1.042,0,0,1,0-1.474l4.9-4.9a1.042,1.042,0,0,1,1.474,0l2.756,2.756a17.828,17.828,0,0,1,4.578-1.9v-3.9A1.042,1.042,0,0,1,45.533,26.7h6.935a1.042,1.042,0,0,1,1.042,1.042v3.9a17.833,17.833,0,0,1,4.579,1.9l2.756-2.756a1.042,1.042,0,0,1,1.474,0l4.9,4.9a1.042,1.042,0,0,1,0,1.473l-2.756,2.756a17.837,17.837,0,0,1,1.9,4.578h3.9A1.042,1.042,0,0,1,71.3,45.533Z" transform="translate(-17.5 -17.5)" fill="#57585a" stroke="rgba(0,0,0,0)" stroke-width="1" fill-rule="evenodd"/>
</svg>
